<?xml version="1.0" encoding="UTF-8"?>
<svg xmlns="http://www.w3.org/2000/svg" width="233" height="62" viewBox="0 0 233 62" fill="none">
  <path d="M47.6977 17.9474C45.6036 17.9474 43.8586 16.1992 43.8586 14.1015V3.84586C43.8586 1.74812 42.1135 0 40.0195 0H21.6385C19.5444 0 17.7994 1.74812 17.7994 3.84586V14.1015C17.7994 16.1992 16.0543 17.9474 13.9603 17.9474H3.83908C1.74504 17.9474 0 19.6955 0 21.7932V40.2068C0 42.3045 1.74504 44.0526 3.83908 44.0526H14.0766C16.1707 44.0526 17.9157 45.8008 17.9157 47.8985V58.1541C17.9157 60.2519 19.6607 62 21.7548 62H40.1358C42.2299 62 43.9749 60.2519 43.9749 58.1541V47.8985C43.9749 45.8008 45.72 44.0526 47.814 44.0526H58.0515C60.1456 44.0526 61.8906 42.3045 61.8906 40.2068V21.7932C61.8906 19.6955 60.1456 17.9474 58.0515 17.9474H47.814H47.6977Z" fill="#007DA5"></path>
  <path d="M5.57614 29.8103C5.57614 32.7647 8.11056 38.3188 13.8706 39.2642C19.4002 40.0914 19.9762 42.6912 21.1283 46.2364C21.3587 47.0636 21.9347 50.4906 23.2019 53.3268C24.6995 56.5174 28.1555 56.9901 29.0771 57.1083C32.6483 57.6991 37.026 57.8173 37.7172 54.7448C38.178 52.8541 38.0628 46.7091 41.1732 43.5184C44.3988 40.0914 47.6245 40.4459 50.6197 40.3277C54.7669 40.2096 56.4949 35.9553 56.9557 33.5919C57.7621 29.8103 57.7621 24.6107 52.2325 23.3108C48.6613 22.3655 42.9012 22.1291 41.2884 18.4658C40.1364 15.7478 39.7908 9.72096 38.4084 7.00298C37.026 4.285 31.8419 5.82125 28.0403 6.76664C22.2803 8.30288 22.6259 15.1569 22.3955 17.8749C22.1651 19.8838 20.6675 20.9474 16.405 21.8928C15.1378 22.1291 11.4514 22.1291 8.80176 23.6654C6.15214 25.2016 5.57614 28.2741 5.46094 29.9285" fill="#00ADD9"></path>
  <path d="M24.3125 45.8856C25.2685 48.9953 27.061 50.1471 30.0486 50.1471C36.2627 50.1471 36.2627 41.5088 40.9233 38.3991C43.6719 36.6714 46.0619 36.6714 47.8544 33.792C51.081 28.8394 47.6154 26.0751 44.6279 25.1537C38.1747 23.1957 38.0552 16.7458 36.8602 15.1333C34.9482 12.8298 31.2436 13.2905 28.1365 16.2851C26.344 18.1279 25.7465 21.5832 23.8345 22.6198C22.0419 23.5412 20.7274 24.002 17.6203 25.3841C10.2112 28.609 11.8842 34.1375 18.3373 36.9018C24.432 39.666 23.5954 43.1213 24.432 45.8856" fill="#ABC37D"></path>
  <path d="M36.0117 37.723C37.9609 35.4763 40.4835 35.5945 42.0887 32.4017C43.8086 28.9724 42.0887 26.6073 39.3368 26.0161C36.4703 25.4248 35.4384 23.8875 34.7504 22.8232C34.1771 21.8772 33.4891 21.1677 32.6865 21.0495C31.3106 20.813 30.0493 21.0495 28.5587 22.5867C27.6414 23.651 26.7241 24.8335 25.4628 25.3065C24.4309 25.6613 23.6282 26.0161 22.023 26.7256C18.0098 28.4994 18.4685 31.4557 21.4497 33.8207C24.4309 36.0675 25.1188 38.7873 26.1508 41.0341C26.9534 42.9262 27.8707 43.6357 29.5906 43.7539C33.0305 43.9904 33.8331 40.3246 36.0117 37.8413" fill="#FABF3A"></path>
  <path d="M26.9582 28.3294C26.2785 28.0853 24.466 28.5735 24.5793 30.5264C24.5793 32.4792 26.2785 34.31 27.4113 36.0187C28.6573 37.7275 29.9034 37.6054 31.1495 36.8731C32.6221 36.1408 35.2275 34.432 36.247 31.1366C36.7002 29.55 36.247 27.353 34.0947 27.353C32.5088 27.353 31.9424 28.4515 30.8096 29.55C29.5636 30.6484 28.6573 29.0618 27.0714 28.4515" fill="#E73C50"></path>
  <path d="M89.0968 35.4415C79.1123 35.4415 72.8125 28.048 72.8125 17.8381C72.8125 7.62813 79.9443 0 90.1666 0C100.389 0 103.123 4.81159 103.123 6.80664C103.123 8.80169 100.983 9.0364 100.983 8.91904C98.8436 5.16366 94.3268 3.16861 90.1666 3.16861C82.2027 3.16861 76.735 9.15376 76.735 17.7207C76.735 26.2877 81.6084 32.3902 89.81 32.3902C98.0116 32.3902 100.745 28.7522 101.459 23.5885V20.6546H91.7118C90.4043 20.6546 89.6911 20.1852 89.6911 19.129V18.8943C89.6911 17.8381 90.2855 17.3687 91.7118 17.3687H101.934C103.479 17.3687 104.668 18.5422 104.668 20.0679V34.7373C104.668 34.7373 104.193 35.0894 103.479 35.0894C102.291 35.0894 101.459 34.5026 101.459 31.6861V29.5737C99.3191 33.3291 94.9211 35.5588 89.3346 35.5588" fill="#0E253A"></path>
  <path d="M128.428 20.1642C128.074 15.2285 125.002 11.9381 120.276 11.9381C115.55 11.9381 111.888 15.346 111.179 20.1642H128.428ZM120.631 32.3859C125.593 32.3859 127.838 30.2706 129.255 27.9203C129.255 27.8028 131.264 28.2728 131.264 29.9181C131.264 31.5633 127.483 35.5589 120.513 35.5589C113.542 35.5589 107.398 30.1531 107.398 22.397C107.398 14.6409 112.833 9.11768 120.158 9.11768C127.483 9.11768 131.973 14.1709 131.973 21.8094V22.162C131.973 23.1021 131.618 23.3372 130.555 23.3372H110.825C111.061 28.6254 115.078 32.5034 120.513 32.5034" fill="#0E253A"></path>
  <path d="M147.528 9.23625C154.186 9.23625 157.457 13.7419 157.457 20.5004V33.8989C157.457 35.2031 156.873 35.5588 155.938 35.5588H155.588C154.654 35.5588 154.069 35.2031 154.069 33.8989V20.7376C154.069 15.639 151.616 12.5562 147.294 12.5562C142.972 12.5562 140.519 14.6905 139.001 17.8919V33.8989C139.001 35.2031 138.417 35.5588 137.482 35.5588H137.132C136.197 35.5588 135.613 35.2031 135.613 33.8989V9.94767C135.613 9.94767 136.081 9.59196 136.781 9.59196C137.95 9.59196 139.001 10.1848 139.001 12.9119V13.7419C140.753 11.0148 143.673 9.11768 147.528 9.11768" fill="#0E253A"></path>
  <path d="M182.128 20.1642C181.773 15.2285 178.701 11.9381 173.975 11.9381C169.25 11.9381 165.587 15.346 164.878 20.1642H182.128ZM174.33 32.3859C179.292 32.3859 181.537 30.2706 182.955 27.9203C182.955 27.8028 184.963 28.2728 184.963 29.9181C184.963 31.5633 181.182 35.5589 174.212 35.5589C167.241 35.5589 161.098 30.1531 161.098 22.397C161.098 14.6409 166.532 9.11768 173.857 9.11768C181.182 9.11768 185.672 14.1709 185.672 21.8094V22.162C185.672 23.1021 185.317 23.3372 184.254 23.3372H164.524C164.76 28.6254 168.777 32.5034 174.212 32.5034" fill="#0E253A"></path>
  <path d="M198.526 32.0774L206.094 12.5822C206.922 10.4935 207.513 10.0293 208.578 10.0293C209.642 10.0293 210.352 10.8416 210.233 11.0737L200.891 34.1662C200.536 35.0945 200.181 35.5587 198.408 35.5587C196.634 35.5587 196.397 35.2106 196.043 34.2822L186.582 11.0737C186.582 10.8416 187.055 10.0293 188.238 10.0293C189.42 10.0293 190.011 10.4935 190.839 12.5822L198.289 32.0774H198.526Z" fill="#0E253A"></path>
  <path d="M229.664 24.8649V22.5145H228.169C219.773 22.8671 215.402 24.3948 215.402 28.3904C215.402 32.3859 217.472 32.6209 220.808 32.6209C225.869 32.6209 229.664 29.448 229.664 24.8649ZM229.664 18.989C229.664 14.6409 227.134 12.2906 222.763 12.2906C218.392 12.2906 216.207 14.4059 214.942 16.9913C214.942 16.9913 212.987 16.8738 212.987 14.9935C212.987 13.1132 216.552 9.11768 222.993 9.11768C229.434 9.11768 233 12.8782 233 18.8715V34.7362C233 34.7362 232.425 35.0888 231.85 35.0888C230.7 35.0888 229.779 34.5012 229.779 31.7983V30.8582C227.824 33.7961 224.489 35.5589 220.578 35.5589C216.667 35.5589 212.066 32.7385 212.066 28.5079C212.066 24.2773 217.817 20.1642 229.204 19.9292H229.779V18.989H229.664Z" fill="#0E253A"></path>
  <path d="M87.375 60.7125V45.9641C87.375 45.1447 87.7331 44.6765 88.5686 44.6765H88.9267C89.7623 44.6765 90.1204 45.1447 90.1204 45.9641V52.1678H99.1921V45.9641C99.1921 45.1447 99.5502 44.6765 100.386 44.6765H100.744C101.579 44.6765 101.938 45.1447 101.938 45.9641V60.7125C101.938 61.5318 101.579 62 100.744 62H100.386C99.6696 62 99.1921 61.5318 99.1921 60.7125V54.5088H90.1204V60.7125C90.1204 61.5318 89.7623 62 88.9267 62H88.5686C87.8525 62 87.375 61.5318 87.375 60.7125Z" fill="#0E253A"></path>
  <path d="M115.7 54.6575C115.581 52.5112 114.152 51.1557 112.128 51.1557C110.103 51.1557 108.436 52.6242 108.079 54.6575H115.82H115.7ZM112.366 60.0797C114.629 60.0797 115.7 59.176 116.415 58.0464C116.415 58.0464 117.844 58.2723 117.844 59.289C117.844 60.3056 115.82 62.0001 112.366 62.0001C108.913 62.0001 105.578 59.4019 105.578 55.6742C105.578 51.9464 108.317 49.2354 112.128 49.2354C115.939 49.2354 118.32 51.7205 118.32 55.3353V55.5612C118.32 56.126 118.082 56.239 117.487 56.239H108.079C108.317 58.4982 109.984 59.9667 112.485 59.9667" fill="#0E253A"></path>
  <path d="M129.437 56.9168V56.0131H128.713C124.97 56.126 123.038 56.8038 123.038 58.4982C123.038 60.1927 124.004 60.3056 125.453 60.3056C127.747 60.3056 129.437 58.9501 129.437 57.0297M129.437 54.2057C129.437 52.3983 128.351 51.3816 126.177 51.3816C124.004 51.3816 123.038 52.3983 122.435 53.4149C122.435 53.4149 120.744 53.4149 120.744 52.1724C120.744 50.9298 122.676 49.2354 126.298 49.2354C129.92 49.2354 131.973 51.0427 131.973 54.0927V61.5482C131.973 61.6612 131.49 61.7741 131.007 61.7741C130.041 61.7741 129.437 61.3223 129.316 59.8538C128.351 61.2093 126.66 62.0001 124.608 62.0001C122.555 62.0001 120.141 60.6445 120.141 58.4982C120.141 56.352 123.038 54.4316 128.834 54.3186H129.196V54.0927L129.437 54.2057Z" fill="#0E253A"></path>
  <path d="M135.613 60.7058V43.9999C135.613 43.9999 136.11 43.7646 136.606 43.7646C137.475 43.7646 138.344 44.2352 138.344 45.9999V60.7058C138.344 61.647 137.847 61.9999 137.103 61.9999H136.854C136.11 61.9999 135.613 61.7647 135.613 60.7058Z" fill="#0E253A"></path>
  <path d="M142.304 51.6667C141.443 51.6667 141.074 51.3297 141.074 50.7681V50.5435C141.074 49.9819 141.443 49.6449 142.304 49.6449H143.288V47.7355C143.288 46.837 143.78 46.5 144.518 46.5H144.764C145.502 46.5 145.994 46.7246 145.994 47.7355V49.6449H148.946C149.807 49.6449 150.053 49.9819 150.053 50.5435V50.7681C150.053 51.442 149.684 51.779 148.823 51.779H145.871V57.8442C145.871 59.3043 146.363 60.0906 147.593 60.0906C148.823 60.0906 149.069 59.7536 149.438 59.192C149.438 59.192 150.176 59.4167 150.176 60.2029C150.176 60.9891 149.069 62 147.101 62C145.133 62 143.165 60.6522 143.165 57.9565V51.5543H142.181L142.304 51.6667Z" fill="#0E253A"></path>
  <path d="M159.719 48.8235C163.065 48.8235 164.738 51.1764 164.738 54.3529V60.7058C164.738 61.647 164.26 61.9999 163.543 61.9999H163.304C162.587 61.9999 162.109 61.7647 162.109 60.7058V54.5882C162.109 52.3529 161.033 51.0588 159.121 51.0588C157.209 51.0588 155.536 52.4705 155.536 54.8235V60.7058C155.536 61.647 155.058 61.9999 154.34 61.9999H154.101C153.384 61.9999 152.906 61.7647 152.906 60.7058V43.9999C152.906 43.9999 153.384 43.7646 153.862 43.7646C154.699 43.7646 155.536 44.2352 155.536 45.9999V51.1764C156.372 49.8823 157.806 48.8235 159.838 48.8235" fill="#0E253A"></path>
  <path d="M167.469 55.5057C167.469 51.8107 170.253 49.2354 173.965 49.2354C177.677 49.2354 179.301 51.4748 179.301 52.5945C179.301 53.7142 177.793 53.8262 177.793 53.7142C177.213 52.3705 176.169 51.3628 174.081 51.3628C171.993 51.3628 170.021 53.1543 170.021 55.6177C170.021 58.0811 171.761 59.8726 174.081 59.8726C176.401 59.8726 177.329 58.8649 177.793 57.5212C177.793 57.4092 179.301 57.5212 179.301 58.6409C179.301 59.7606 177.677 62.0001 173.965 62.0001C170.253 62.0001 167.469 59.3127 167.469 55.6177" fill="#0E253A"></path>
  <path d="M190.613 56.9168V56.0131H189.944C186.489 56.126 184.706 56.8038 184.706 58.4982C184.706 60.1927 185.598 60.3056 186.935 60.3056C189.052 60.3056 190.613 58.9501 190.613 57.0297M190.613 54.2057C190.613 52.3983 189.61 51.3816 187.604 51.3816C185.598 51.3816 184.706 52.3983 184.149 53.4149C184.149 53.4149 182.588 53.4149 182.588 52.1724C182.588 50.9298 184.372 49.2354 187.715 49.2354C191.059 49.2354 192.953 51.0427 192.953 54.0927V61.5482C192.953 61.6612 192.507 61.7741 192.062 61.7741C191.17 61.7741 190.613 61.3223 190.501 59.8538C189.61 61.2093 188.049 62.0001 186.155 62.0001C184.26 62.0001 182.031 60.6445 182.031 58.4982C182.031 56.352 184.706 54.4316 190.055 54.3186H190.39V54.0927L190.613 54.2057Z" fill="#0E253A"></path>
  <path d="M202.829 49.2354C204.024 49.2354 204.785 49.8103 204.785 50.8453C204.785 51.8803 204.133 52.2253 204.024 52.1103C203.698 51.7653 203.155 51.5353 202.503 51.5353C200.655 51.5353 199.895 53.4903 199.895 56.3652V60.7351C199.895 61.6551 199.46 62.0001 198.808 62.0001H198.591C197.939 62.0001 197.504 61.7701 197.504 60.7351V49.5803C197.504 49.5803 197.939 49.3503 198.373 49.3503C199.134 49.3503 199.895 49.8103 199.895 51.5353C200.438 50.0403 201.416 49.2354 202.829 49.2354Z" fill="#0E253A"></path>
  <path d="M216.728 54.6575C216.609 52.5112 215.18 51.1557 213.155 51.1557C211.131 51.1557 209.464 52.6242 209.106 54.6575H216.847H216.728ZM213.393 60.0797C215.656 60.0797 216.728 59.176 217.442 58.0464C217.442 58.0464 218.871 58.2723 218.871 59.289C218.871 60.3056 216.847 62.0001 213.393 62.0001C209.94 62.0001 206.605 59.4019 206.605 55.6742C206.605 51.9464 209.344 49.2354 213.155 49.2354C216.966 49.2354 219.348 51.7205 219.348 55.3353V55.5612C219.348 56.126 219.109 56.239 218.514 56.239H209.106C209.344 58.4982 211.012 59.9667 213.512 59.9667" fill="#0E253A"></path>
</svg>
